# xmcd
#
# Track frame offsets:
#	150
#	9772
#	20932
#	33562
#	44212
#	56162
#	69907
#	78930
#	87900
#	104972
#	117152
#	129160
#	143547
#	153467
#
# Disc length: 2176 seconds
# Revision: 3
# Processed by: cddbd v1.5.2PL0 Copyright (c) Steve Scherf et al.
# Submitted via: dBpowerAMP V12.0
#
DISCID=bb087e0e
DTITLE=Daughters of the Purple Sage - Out Wickenburg Way
DYEAR=1991
DGENRE=Country
TTITLE0=Way Out Wickenburg Way
TTITLE1=Deep Water
TTITLE2=Teardrops In My Heart
TTITLE3=Don't Fence Me in
TTITLE4=Cattle Call
TTITLE5=Ridin' Down The Canyon
TTITLE6=Cowboy Jubilee
TTITLE7=Happy Trails
TTITLE8=Blue Prairie
TTITLE9=When Payday Rolls Around
TTITLE10=Room Full Of Roses
TTITLE11=When It's Springtime In The Rockies
TTITLE12=When the Bloom Is On The Sage
TTITLE13=Twilight On The Trail
EXTD=
EXTT0=
EXTT1=
EXTT2=
EXTT3=
EXTT4=
EXTT5=
EXTT6=
EXTT7=
EXTT8=
EXTT9=
EXTT10=
EXTT11=
EXTT12=
EXTT13=
PLAYORDER=
